<svg xmlns="http://www.w3.org/2000/svg" viewBox="0 0 647.63 632.17">
  <title>empty</title>
  <path d="M433.64,91.05c.19,0,.37,0,.56,0L410,12A17,17,0,0,0,388.78.75h0L296,29.14,104.78,87.69,12,116.09A17,17,0,0,0,.75,137.32L134.83,575.25a17,17,0,0,0,16.26,12,16.78,16.78,0,0,0,5-.75l63.58-19.46,2-.62v-2.09l-2,.61-64.17,19.65a15,15,0,0,1-18.73-10L2.67,136.73A15,15,0,0,1,12.58,118h0l92.75-28.4L296.61,31.06l92.75-28.4A15.65,15.65,0,0,1,393.77,2a15,15,0,0,1,14.32,10.61l24,78.53A12.79,12.79,0,0,1,433.64,91.05Z" transform="translate(0 0)" style="fill: #8f9bb3"/>
  <path d="M411.15,142.17H236.64a15,15,0,0,0-15,15V545l-2,.61-42.81,13.11a8,8,0,0,1-10-5.31L39.5,137.48a8,8,0,0,1,5.31-10l66-20.2L302,48.75l66-20.2a8,8,0,0,1,10,5.29h0l32.55,106.32Z" transform="translate(0 0)" style="fill: #f7f9fc"/>
  <path d="M307.22,62.32,294.34,20.25a9,9,0,0,0-11.24-6L205.17,38.14a20,20,0,1,0-20.08,6.14L107.16,68.14h0a9,9,0,0,0-6,11.24l12.88,42.07a9,9,0,0,0,11.24,6L301.25,73.56A9,9,0,0,0,307.22,62.32ZM177.49,25a12.67,12.67,0,1,1,12.66,12.67A12.66,12.66,0,0,1,177.49,25Z" transform="translate(0 0)" style="fill: #ffc747"/>
  <path d="M602.64,582.17h-338a8.49,8.49,0,0,1-8.5-8.5v-405a8.51,8.51,0,0,1,8.5-8.5h338a8.52,8.52,0,0,1,8.5,8.5v405A8.51,8.51,0,0,1,602.64,582.17Z" transform="translate(0 0)" style="fill: #f7f9fc"/>
  <path d="M447.14,140.17H236.64a17,17,0,0,0-17,17V565l2-.61V157.17a15,15,0,0,1,15-15H447.76Zm183.5,0h-394a17,17,0,0,0-17,17v458a17,17,0,0,0,17,17h394a17,17,0,0,0,17-17v-458A17,17,0,0,0,630.64,140.17Zm15,475a15,15,0,0,1-15,15h-394a15,15,0,0,1-15-15v-458a15,15,0,0,1,15-15h394a15,15,0,0,1,15,15Z" transform="translate(0 0)" style="fill: #8f9bb3"/>
  <path d="M525.64,122.17H444.13a20,20,0,1,0-21,0h-81.5a9,9,0,0,0-9,9v44a9,9,0,0,0,9,9h184a9,9,0,0,0,9-9v-44A9,9,0,0,0,525.64,122.17ZM433.64,93a12.19,12.19,0,1,1-12.19,12.18A12.19,12.19,0,0,1,433.64,93Z" transform="translate(0 0)" style="fill: #ffc747"/>
</svg>
